# xmcd
#
# Track frame offsets: 
#        150
#        3153
#        22821
#        37736
#        54841
#        76825
#        91445
#        94677
#        115841
#        119345
#        140890
#        162166
#        178710
#        196380
#        215423
#        234091
#        255142
#        260836
#
# Disc length: 3804 seconds
#
# Revision: 0
# Processed by: cddbd v1.5.2PL0 Copyright (c) Steve Scherf et al.
# Submitted via: ExactAudioCopy v1.1
#
DISCID=d90eda12
DTITLE=Mary Lee Kortes - Will Anybody Know That I was Here: The Songs 
DTITLE=of Beulah Rowley
DYEAR=2016
DGENRE=Country
TTITLE0=Opening Montage
TTITLE1=God's Heartbeat
TTITLE2=Born A Happy Girl
TTITLE3=Fingernail Moon
TTITLE4=The Old Piano Bench
TTITLE5=Green Sand
TTITLE6=Lost and Found
TTITLE7=How Many Times
TTITLE8=Lost and Found
TTITLE9=A Rain's Gonna Come
TTITLE10=Someplace We Can't See
TTITLE11=Well By The Water
TTITLE12=Big Things
TTITLE13=Through a Cloudy Window
TTITLE14=The Music Got Me Here
TTITLE15=Will Anybody Know That I Was Here
TTITLE16=Lost and Found
TTITLE17=The Young Float Freely By
EXTD=
EXTT0=
EXTT1=
EXTT2=
EXTT3=
EXTT4=
EXTT5=
EXTT6=
EXTT7=
EXTT8=
EXTT9=
EXTT10=
EXTT11=
EXTT12=
EXTT13=
EXTT14=
EXTT15=
EXTT16=
EXTT17=
PLAYORDER=
